<svg version="1.1" xmlns="http://www.w3.org/2000/svg" xmlns:xlink="http://www.w3.org/1999/xlink" width="356.89999" height="112.56322" viewBox="0,0,356.89999,112.56322"><g transform="translate(39.64999,-85.55)"><g data-paper-data="{&quot;isPaintingLayer&quot;:true}" fill="#f6f5f6" stroke="#a3a3a1" stroke-width="2.5" stroke-linecap="butt" stroke-linejoin="miter" stroke-miterlimit="10" stroke-dasharray="" stroke-dashoffset="0" style="mix-blend-mode: normal"><path d="M-38.39999,157.8v-71h130v71z" fill-rule="nonzero"/><g fill-rule="evenodd"><path d="M211.12462,163.13678c0.92401,0 1.84803,0 2.77204,0c0.75954,0.3772 1.29824,0.9932 1.61702,1.84802c0.15385,2.31003 0.30815,4.62006 0.46201,6.93009c0.53916,0.53902 1.07786,1.078 1.61702,1.61702c5.32693,1.61998 10.71716,3.00599 16.17022,4.15805c1.90762,0.47365 2.83163,1.70568 2.77203,3.69605c-0.64727,4.66455 -3.26546,6.20455 -7.85411,4.62006c-3.90211,-1.50928 -7.9063,-2.43329 -12.01215,-2.77203c-0.81036,1.58117 -1.27237,3.2752 -1.38602,5.08207c1.82585,6.95306 -0.63803,9.26308 -7.3921,6.93009c-0.44357,-0.65577 -0.82862,-1.34878 -1.15502,-2.07903c-1.11972,-7.50279 -1.42773,-15.04888 -0.92401,-22.6383c-0.05757,-2.60227 0.78943,-4.8353 2.54103,-6.69909c1.02002,-0.08819 1.94403,-0.31919 2.77203,-0.693z" opacity="0.939"/><path d="M164,176.99696c0,-0.46201 0,-0.92401 0,-1.38602c0.36193,-3.0145 0.74693,-6.09455 1.15501,-9.24012c0.26532,-0.9203 0.80434,-1.61331 1.61702,-2.07903c6.68971,-1.61882 8.99975,0.99922 6.9301,7.8541c-0.07701,2.38705 -0.15399,4.77405 -0.23101,7.1611c-0.51823,0.98121 -1.21124,1.8282 -2.07903,2.54103c-4.69589,1.43993 -7.15992,-0.17709 -7.3921,-4.85107z" opacity="0.93"/><path d="M174.62614,196.86322c-0.61599,0 -1.23203,0 -1.84802,0c-2.81763,-1.15858 -4.12665,-3.31462 -3.92705,-6.46809c0.41696,-0.55506 0.95598,-0.94009 1.61702,-1.15502c2.85682,-0.48308 5.62885,-1.2531 8.31611,-2.31003c3.88847,-3.17643 5.73649,-7.33449 5.54407,-12.47416c-0.51218,-2.9853 -0.58915,-5.98834 -0.231,-9.00912c0.76957,-1.4629 2.00155,-2.07891 3.69605,-1.84803c2.86282,-0.33442 4.55686,0.8976 5.08207,3.69605c3.62846,16.01683 -2.45464,25.87294 -18.24924,29.56839z" opacity="0.933"/><path d="M252.70517,163.59879c5.55794,-0.09492 11.102,0.13608 16.63222,0.69301c3.10191,0.73436 4.25693,2.65938 3.46505,5.77507c-0.8986,0.62985 -1.89977,1.01484 -3.00304,1.15501c-7.72105,0.42731 -15.4213,0.27328 -23.1003,-0.462c-2.11552,-1.36823 -2.42323,-3.13926 -0.92402,-5.31307c2.24026,-1.01375 4.5503,-1.62976 6.93009,-1.84803z" opacity="0.9"/><path d="M316,169.14286c0,1.38602 0,2.77203 0,4.15805c-2.8016,1.42511 -5.65079,2.81112 -8.54711,4.15806c-0.88382,1.73654 -1.26914,3.58457 -1.15502,5.54407c0.42551,3.99945 0.50221,8.00352 0.23101,12.01216c-2.20331,1.27754 -4.5905,1.66253 -7.1611,1.15502c-0.99378,-0.12239 -1.76394,-0.5844 -2.31003,-1.38602c-0.36221,-3.44842 -0.59322,-6.91345 -0.69301,-10.39514c-0.12613,-0.84497 -0.51144,-1.53797 -1.15501,-2.07903c-3.19061,1.12637 -6.42465,2.28138 -9.70212,3.46504c-1.01502,-0.16082 -1.86189,-0.62282 -2.54104,-1.38601c-1.36662,-2.05764 -1.67431,-4.21364 -0.92401,-6.46809c5.38468,-2.10319 10.8516,-4.02823 16.40121,-5.77508c4.26247,-2.49492 8.57437,-4.88197 12.93617,-7.16109c1.84895,1.08076 3.38882,2.46678 4.62006,4.15805z" opacity="0.939"/><path d="M250.85715,173.76292c5.70023,-0.07692 11.39815,0.00005 17.09422,0.231c2.49345,0.10497 4.95779,0.41295 7.39209,0.92401c0.61863,7.72142 -2.4611,13.57346 -9.24012,17.55623c-4.85245,3.13979 -10.08883,4.21779 -15.70821,3.23404c-1.80968,-1.07486 -2.73369,-2.69187 -2.77204,-4.85106c0.19358,-0.54152 0.50128,-1.00352 0.92401,-1.38602c3.88178,-0.85374 7.73167,-1.85473 11.55015,-3.00304c6.43205,-2.99343 6.12389,-4.68747 -0.92401,-5.08206c-2.92635,-0.16134 -5.85269,-0.08432 -8.77811,0.231c-2.54519,0.06334 -5.00953,-0.32165 -7.3921,-1.15501c-1.84803,-1.84803 -1.84803,-3.69604 0,-5.54407c2.68102,-0.41174 5.29921,-0.79677 7.85411,-1.15501z" opacity="0.923"/></g></g></g></svg>