<svg version="1.1" xmlns="http://www.w3.org/2000/svg" xmlns:xlink="http://www.w3.org/1999/xlink" width="112.98831" height="55.5" viewBox="0,0,112.98831,55.5"><defs><linearGradient x1="240" y1="155" x2="240" y2="205" gradientUnits="userSpaceOnUse" id="color-1"><stop offset="0" stop-color="#dcdbdb"/><stop offset="1" stop-color="#d0d0d0"/></linearGradient></defs><g transform="translate(-183.50585,-155)"><g data-paper-data="{&quot;isPaintingLayer&quot;:true}" stroke-linejoin="miter" stroke-miterlimit="10" stroke-dasharray="" stroke-dashoffset="0" style="mix-blend-mode: normal"><path d="M208.50585,185.5h62.98831" fill="none" fill-rule="nonzero" stroke="#a29f9a" stroke-width="50" stroke-linecap="round"/><path d="M208.50585,180h62.98831" fill="none" fill-rule="nonzero" stroke="url(#color-1)" stroke-width="50" stroke-linecap="round"/><g fill="#f4f3f2" fill-rule="evenodd" stroke="#adadac" stroke-width="3" stroke-linecap="butt"><path d="M216.86975,157.23116c7.22821,0 14.4564,0 21.68461,0c0.72608,0.85492 1.3284,1.81867 1.80705,2.89128c0.48191,9.15575 0.48191,18.31142 0,27.46717c-0.67584,1.88071 -2.00098,2.96493 -3.97551,3.25269c-3.12302,0.36068 -6.25521,0.48118 -9.39666,0.36141c0,3.85502 0,7.71011 0,11.56513c-3.37316,0 -6.74632,0 -10.11948,0c0,-15.17923 0,-30.35846 0,-45.53768zM226.98923,165.905c1.44564,0 2.89128,0 4.33692,0c0,5.54164 0,11.08322 0,16.62487c-1.44564,0 -2.89128,0 -4.33692,0c0,-5.54164 0,-11.08322 0,-16.62486z" opacity="0.92"/><path d="M246.50538,157.23116c5.05974,0 10.11949,0 15.17923,0c0.30843,1.81415 0.79026,3.50075 1.44564,5.05975c0,1.2047 0,2.40939 0,3.6141c-3.1322,0 -6.26447,0 -9.39667,0c0,9.39667 0,18.79333 0,28.18999c3.1322,0 6.26447,0 9.39667,0c0,1.20472 0,2.40937 0,3.6141c-0.65538,1.55898 -1.13721,3.24561 -1.44564,5.05975c-5.05974,0 -10.11949,0 -15.17923,0c-1.2791,-1.16612 -2.12242,-2.61177 -2.52987,-4.33692c-0.48191,-12.52886 -0.48191,-25.0578 0,-37.58666c0.50395,-1.50664 1.34727,-2.71134 2.52987,-3.6141z" opacity="0.928"/></g></g></g></svg>