<svg version="1.1" xmlns="http://www.w3.org/2000/svg" xmlns:xlink="http://www.w3.org/1999/xlink" width="205" height="55.5" viewBox="0,0,205,55.5"><defs><linearGradient x1="240" y1="155" x2="240" y2="205" gradientUnits="userSpaceOnUse" id="color-1"><stop offset="0" stop-color="#facf21"/><stop offset="1" stop-color="#f8c015"/></linearGradient></defs><g transform="translate(-137.5,-155)"><g data-paper-data="{&quot;isPaintingLayer&quot;:true}" fill-rule="nonzero" stroke-linejoin="miter" stroke-miterlimit="10" stroke-dasharray="" stroke-dashoffset="0" style="mix-blend-mode: normal"><path d="M162.5,185.5h155" fill="none" stroke="#b27c0b" stroke-width="50" stroke-linecap="round"/><path d="M162.5,180h155" fill="none" stroke="url(#color-1)" stroke-width="50" stroke-linecap="round"/><g stroke="#8f6700"><path d="M162.49613,171.83539l3.22708,-0.67167l1.37946,-1.61288l5.00886,0.70026h2.12943l-0.09375,3.95466l-1.30867,2.06055l-0.1186,2.57332l-3.95466,-0.07078l-3.04205,5.7799l-3.26979,3.65046l-3.89388,1.16521l-2.99182,-2.84887l5.28819,-4.70464l2.43365,-4.25888h-2.43365l-4.86728,3.95467l-2.73785,-3.04205l6.08411,-9.12616z" fill="#fffac8" stroke-width="2.5" stroke-linecap="round"/><path d="M179.00327,182.95303v-7.21855h18.93698v7.21855z" fill="#fffac8" stroke-width="2.5" stroke-linecap="butt"/><path d="M215.5882,170.76586l-0.28124,4.1249l-4.49988,8.06227l7.40605,-0.09375l-1.21872,-3.18741l3.93739,-1.78121l3.5624,8.90602l-1.31247,1.49996h-19.31197l-0.09375,-3.3749l7.4998,-14.15587z" fill="#fffac8" stroke-width="2.5" stroke-linecap="round"/><path d="M237.10323,189.7966h-7.21855v-3.09367l9.51536,-9.51536h-9.04663v-6.23421h16.49955v6.93732l-1.68746,2.62492l4.40613,4.49989v4.31238h-4.96861l-3.51552,-3.51553z" fill="#fffac8" stroke-width="2.5" stroke-linecap="round"/><path d="M275.23499,170.48465v7.68728l-4.49988,7.87478l-5.90609,4.21863l-4.68737,0.84373l-1.78121,-3.84365l3.65616,-1.87495l2.71867,-1.96869l0.37499,-2.06245h-5.15611l-3.57835,2.4806l-2.79647,-3.51182l8.24977,-9.84348z" fill="#fffac8" stroke-width="2.5" stroke-linecap="round"/><path d="M260.61041,177.98442l3.28117,-4.21863h7.10919l-2.81243,4.12489z" fill="#8f6700" stroke-width="0" stroke-linecap="butt"/><path d="M282.31294,182.76554v-6.84356h18.46824v6.84356z" fill="#fffac8" stroke-width="2.5" stroke-linecap="butt"/><path d="M316.43699,168.89092v5.3436l10.31222,4.12489v5.15611h-4.12489l-6.65607,-2.15618v8.15602h-7.40604v-20.62444z" fill="#fffac8" stroke-width="2.5" stroke-linecap="round"/></g></g></g></svg>