<svg version="1.1" xmlns="http://www.w3.org/2000/svg" xmlns:xlink="http://www.w3.org/1999/xlink" width="205" height="55.5" viewBox="0,0,205,55.5"><defs><linearGradient x1="240" y1="152.25" x2="240" y2="202.25" gradientUnits="userSpaceOnUse" id="color-1"><stop offset="0" stop-color="#facf21"/><stop offset="1" stop-color="#f8c015"/></linearGradient></defs><g transform="translate(-137.5,-152.25)"><g data-paper-data="{&quot;isPaintingLayer&quot;:true}" fill-rule="nonzero" stroke-linejoin="miter" stroke-miterlimit="10" stroke-dasharray="" stroke-dashoffset="0" style="mix-blend-mode: normal"><path d="M162.5,182.75h155" fill="none" stroke="#b27c0b" stroke-width="50" stroke-linecap="round"/><path d="M162.5,177.25h155" fill="none" stroke="url(#color-1)" stroke-width="50" stroke-linecap="round"/><g stroke="#8f6700" stroke-width="2.5" stroke-linecap="butt"><path d="M255.41063,166.75166c1.65435,2.5997 1.73314,3.07238 0.59083,3.66322c-1.29985,0.709 -2.40275,0.27573 -3.78139,-1.49679c-1.53618,-2.04826 -1.69374,-3.50566 -0.39389,-4.01773c1.69375,-0.66962 2.16641,-0.43329 3.58443,1.8513z" fill="#fffac8"/><path d="M206.13442,165.56998c0.15756,0.07879 0.27573,0.3939 0.27573,0.709c0,0.59083 0.86656,0.98475 2.2452,0.98475c0.55146,0 1.22108,0.3151 1.49679,0.6696c0.43329,0.59083 0.59083,0.47269 1.49679,-0.94533c0.55146,-0.90596 1.26047,-1.69375 1.53618,-1.77254c1.02412,-0.35451 3.66321,0.43329 4.21468,1.22108c0.35451,0.55146 0.94536,0.82719 1.85131,0.82719c1.73314,0 2.5997,0.94534 2.44214,2.71786l-0.11817,1.41802l-2.9542,0.11816c-1.61496,0.0394 -3.22995,0.19695 -3.54505,0.31513c-1.18168,0.43329 0.55146,0.94535 3.22995,0.94535c2.40275,0 2.71786,0.07879 3.3087,0.98475c0.78779,1.22108 0.51207,3.11177 -0.70901,4.41161c-0.86656,0.94535 -0.94533,0.86656 1.06353,1.49679c0.39389,0.11818 0.59083,0.66962 0.59083,1.69375c0,1.61495 -0.55146,2.44215 -1.61497,2.44215c-0.66962,0 -1.14231,1.4574 -1.14231,3.46627c0,1.93008 -0.94533,2.44214 -4.60855,2.44214c-3.19055,0 -3.30871,-0.03939 -3.7026,-1.06352c-0.66962,-1.81191 -0.31512,-2.63909 1.22106,-2.87543c1.06351,-0.15756 1.41801,-0.39391 1.49679,-1.10291c0.11818,-0.7484 -0.03938,-0.86656 -1.22106,-0.86656c-1.45741,0 -1.8513,-0.47269 -1.8513,-2.16643c0,-1.61496 0.43329,-2.16642 1.61497,-2.16642c0.709,0 1.33924,-0.31512 1.61497,-0.78779c0.27573,-0.43329 0.709,-0.78779 0.98473,-0.78779c0.27573,0 0.51206,-0.15756 0.51206,-0.35452c0,-0.51206 -1.18168,-0.86656 -2.00885,-0.63022c-1.22108,0.39389 -2.20583,-0.43328 -2.48154,-2.12702c-0.31512,-2.12704 -1.37864,-2.79665 -4.45101,-2.79665c-3.78138,0 -3.78138,1.22107 0,1.41803c3.15115,0.15756 3.22995,0.31511 3.22995,7.95667c0,5.71148 -0.07878,6.77498 -0.70901,7.68094c-0.66962,1.02413 -0.90595,1.10291 -2.91482,0.98474c-2.2452,-0.11818 -2.36338,-0.19695 -3.19055,-2.28459l-0.3939,-0.98475l-0.47268,1.26048c-0.55146,1.53618 -1.53618,1.69374 -3.07238,0.47268c-0.74839,-0.55145 -1.1029,-0.66962 -1.22107,-0.31512c-0.27573,0.90596 1.49679,1.85131 4.37222,2.32397c1.85129,0.31512 5.71147,0.43329 10.95027,0.3545l8.07483,-0.15756l0.11817,0.94535c0.47267,3.3087 -0.90596,3.78139 -10.75332,3.78139c-7.32644,0 -7.56277,-0.03938 -10.75332,-1.18168c-2.71787,-0.98474 -3.3481,-1.10291 -4.01772,-0.66962c-0.43329,0.23633 -1.14229,0.70901 -1.57558,0.94535c-1.06351,0.66962 -2.56031,-0.19695 -3.70261,-2.12703l-0.82717,-1.41802l1.10291,-0.86658c1.06351,-0.82717 1.10291,-0.98472 0.98473,-4.05711c-0.11818,-3.07238 -0.15756,-3.22995 -1.18169,-3.74201c-0.94535,-0.43329 -1.10289,-0.74841 -1.10289,-2.04826c0,-2.16643 0.7484,-2.75726 3.54505,-2.75726c3.62383,0 4.21468,0.3545 4.52978,2.83604c0.27573,1.73314 0.35451,1.93009 0.59083,1.10291c0.15756,-0.55146 0.39391,-2.36337 0.55146,-4.05712c0.23633,-2.5603 0.15756,-3.07238 -0.3545,-3.26934c-0.35451,-0.15756 -0.94535,0.0394 -1.33925,0.39391c-0.39389,0.35451 -1.02412,0.63023 -1.41801,0.63023c-0.94535,0 -4.92369,-4.13588 -4.92369,-5.12063c0,-0.74839 2.48153,-3.15116 3.22994,-3.15116c0.23633,0 1.06351,0.47267 1.77251,1.02412l1.37862,1.02414l0.55146,-0.82717c0.35451,-0.47267 1.02412,-0.82718 1.57558,-0.82718c0.66962,0 1.06351,-0.31512 1.33925,-0.94535c0.19696,-0.51206 0.66962,-1.06351 1.06351,-1.1423c0.709,-0.19696 3.62383,0.07879 4.17528,0.39391zM204.7164,178.29276c-0.39389,0 -0.63023,0.74839 -0.82717,2.40276c-0.43329,4.17528 -0.31512,5.16002 0.47268,5.00247c0.55146,-0.11818 0.66961,-0.66962 0.78779,-3.7814c0.07879,-2.87543 0,-3.62383 -0.43329,-3.62383z" fill="#fffac8"/><path d="M277.23238,166.988c0.19696,1.69375 1.37863,2.12702 6.57804,2.44214c2.59972,0.15756 5.00247,0.43329 5.35697,0.63025c0.70902,0.35451 1.18169,2.12704 0.86657,2.99359c-0.3545,0.94535 -3.22993,1.33925 -9.57164,1.26048c-6.69621,-0.0394 -7.64156,0.15754 -7.40523,1.77251c0.15755,1.1423 1.29985,1.33924 7.64156,1.37864c3.93894,0.0394 5.71147,0.19696 6.26292,0.55146c0.63023,0.51206 0.66962,0.98473 0.47268,5.43574c-0.23633,5.31757 -0.59085,7.0507 -1.96947,9.02018c-1.14231,1.73314 -2.87543,2.28458 -7.16888,2.32398c-4.37222,0.0394 -5.39636,-0.39388 -5.75086,-2.44214c-0.39389,-2.40274 0.23633,-2.83605 3.93894,-2.83605c3.93894,0 4.45101,-0.3939 4.68734,-3.742c0.23633,-3.22993 -0.07878,-3.54505 -3.70261,-3.54505c-4.17528,0 -4.56918,0.23635 -6.49926,4.01774c-1.85129,3.54503 -5.98721,8.193 -7.32644,8.193c-0.98474,0 -4.05711,-2.59971 -4.05711,-3.42688c0,-0.35451 1.06352,-1.73312 2.32399,-3.11176c2.67847,-2.83603 3.93894,-5.67209 4.25406,-9.61103c0.31512,-3.54504 -0.35451,-4.17529 -3.93894,-3.93895c-0.59083,0.0394 -1.61496,-0.03939 -2.2452,-0.19695c-1.02412,-0.23633 -1.18169,-0.43327 -1.18169,-1.53618c0,-0.86656 0.31513,-1.57558 1.02413,-2.2452c0.90596,-0.86656 1.37863,-0.94534 5.19941,-1.06352c5.39636,-0.11818 5.9872,-0.27573 5.9872,-1.37864c0,-1.41802 0.63023,-1.96947 2.44214,-2.2452c2.52093,-0.35451 3.62384,0.0394 3.78139,1.29987z" fill="#fffac8"/><path d="M249.5416,167.93335c1.53618,2.12704 1.65435,2.71789 0.7484,3.74201c-0.82717,0.86656 -0.63021,1.14229 3.26934,4.33282c3.26933,2.67847 3.54503,3.46627 1.73312,5.39636c-1.26047,1.33925 -2.2058,1.49681 -3.3481,0.63023c-1.29985,-0.98475 -1.45741,-0.709 -1.18168,1.96948c0.35451,3.38749 -0.47267,5.5539 -2.83604,7.64154c-3.19055,2.79664 -8.58691,3.86018 -12.99852,2.6391c-8.98081,-2.5997 -11.54111,-10.91088 -5.63269,-18.39487c0.66962,-0.82717 1.10291,-1.69374 0.94535,-1.93008c-0.11818,-0.19696 -0.98475,-0.39389 -1.9301,-0.39389c-0.90596,0 -1.85129,-0.19696 -2.12702,-0.47269c-0.709,-0.709 -0.55146,-2.87541 0.23633,-3.86016c0.66962,-0.82717 1.14229,-0.90597 6.02659,-1.06352c6.18415,-0.23633 6.53865,-0.07877 6.69621,2.6391c0.11818,2.87543 0.0394,3.07238 -2.16641,5.47513c-2.79664,3.03299 -3.78138,5.00246 -3.78138,7.484c0,1.49679 0.23633,2.20581 0.90596,2.9936c2.16643,2.52092 8.86264,1.89069 9.61103,-0.90596c0.59083,-2.04826 0.19695,-6.10538 -0.86656,-8.90202c-0.55146,-1.45741 -0.90597,-2.99359 -0.78779,-3.38749c0.11818,-0.39389 0.94536,-1.37862 1.81191,-2.16642c1.57558,-1.41802 1.65435,-1.73314 0.94535,-3.42688c-0.19696,-0.47267 0.03939,-0.82717 0.86656,-1.26046c1.77252,-0.94535 2.40275,-0.74841 3.86017,1.22106z" fill="#fffac8"/></g></g></g></svg>