<svg version="1.1" xmlns="http://www.w3.org/2000/svg" xmlns:xlink="http://www.w3.org/1999/xlink" width="112.98832" height="55.5" viewBox="0,0,112.98832,55.5"><defs><linearGradient x1="240.00004" y1="155" x2="240.00004" y2="205" gradientUnits="userSpaceOnUse" id="color-1"><stop offset="0" stop-color="#dcdbdb"/><stop offset="1" stop-color="#d0d0d0"/></linearGradient></defs><g transform="translate(-183.50587,-155)"><g data-paper-data="{&quot;isPaintingLayer&quot;:true}" stroke-linejoin="miter" stroke-miterlimit="10" stroke-dasharray="" stroke-dashoffset="0" style="mix-blend-mode: normal"><path d="M208.50588,185.5h62.98831" fill="none" fill-rule="nonzero" stroke="#a29f9a" stroke-width="50" stroke-linecap="round"/><path d="M271.49418,180h-62.98831" fill="none" fill-rule="nonzero" stroke="url(#color-1)" stroke-width="50" stroke-linecap="round"/><g fill="#f4f3f2" fill-rule="evenodd" stroke="#adadac" stroke-width="3" stroke-linecap="butt"><path d="M233.65174,168.81497c0.3023,0 0.6046,0 0.90689,0c1.24335,1.04773 2.15025,2.35769 2.72068,3.92987c-0.67624,1.29535 -1.6841,1.64804 -3.02298,1.05804c-1.28326,-1.10411 -1.93833,-2.46446 -1.96494,-4.08102c0.4994,-0.27187 0.95284,-0.57417 1.36034,-0.90689z" opacity="0.832"/><path d="M188.00474,181.20919c0,-0.90689 0,-1.81379 0,-2.72068c0.35754,-0.30366 0.76061,-0.55556 1.20919,-0.75575c1.61226,-0.10076 3.22452,-0.20154 4.83677,-0.3023c1.07784,-0.65825 1.1786,-1.46439 0.3023,-2.41838c-1.1854,-0.06137 -2.3442,-0.21252 -3.47643,-0.45345c-0.87116,-2.51893 -0.01465,-3.98003 2.56953,-4.38332c2.8734,-0.12243 5.74523,-0.27358 8.61549,-0.45345c1.99024,0.06614 3.95518,0.31805 5.89481,0.75575c1.23144,0.54883 1.83604,1.50611 1.81379,2.87183c-0.18981,0.53147 -0.49211,0.98492 -0.90689,1.36034c-0.89728,0.20967 -1.80418,0.36082 -2.72068,0.45345c-1.30523,-0.26285 -2.61521,-0.31321 -3.92987,-0.15115c-0.81463,0.42817 -1.01614,1.03277 -0.6046,1.81379c1.90511,0.83613 3.87005,0.98728 5.89481,0.45345c1.16947,0.06895 2.32827,0.2201 3.47643,0.45345c1.52213,0.91091 1.87482,2.17047 1.05804,3.77873c-0.22684,0.18918 -0.47878,0.34033 -0.75575,0.45345c-3.29789,0.01784 -6.57278,0.26974 -9.82469,0.75575c-0.30342,1.05581 -0.15227,2.01306 0.45345,2.87183c2.41838,0.10076 4.83677,0.20154 7.25515,0.3023c0.15115,0.15115 0.3023,0.3023 0.45345,0.45345c0.20154,1.00765 0.20154,2.01533 0,3.02298c-1.00835,0.80695 -2.16714,1.2604 -3.47643,1.36034c-2.11609,0.20154 -4.23217,0.20154 -6.34826,0c-2.06179,-0.12183 -3.47253,-1.12948 -4.23217,-3.02298c-0.38183,-1.71191 -0.68413,-3.42492 -0.90689,-5.13907c-1.48918,-0.37839 -3.00067,-0.47917 -4.53447,-0.3023c-0.87794,-0.04015 -1.5833,-0.39284 -2.11609,-1.05804z" opacity="0.939"/><path d="M228.81497,169.72187c0.86608,-0.13457 1.62183,0.06696 2.26724,0.6046c0.50393,0.80613 1.00756,1.61226 1.51149,2.41838c0.2494,0.6653 0.09825,1.2195 -0.45345,1.66264c-0.68138,0.34779 -1.38664,0.44855 -2.11609,0.3023c-1.14148,-0.92131 -1.9474,-2.08014 -2.41838,-3.47643c0.19952,-0.69974 0.60248,-1.20356 1.20919,-1.51149z" opacity="0.84"/><path d="M272.04359,169.72187c1.21342,-0.05003 2.42262,0.00035 3.62758,0.15115c0.15115,0.15115 0.3023,0.3023 0.45345,0.45345c0.69891,5.31624 0.29595,10.55607 -1.20919,15.7195c-0.65538,2.36953 -2.16687,3.78027 -4.53447,4.23217c-1.78507,-0.62564 -3.04475,-1.83483 -3.77873,-3.62758c0.65689,-0.8078 1.41264,-1.51315 2.26724,-2.11609c0.57678,-0.82086 0.97975,-1.72775 1.20919,-2.72068c0.33555,-3.21476 0.53718,-6.43925 0.6046,-9.67354c0.07437,-1.05948 0.52781,-1.86561 1.36034,-2.41838z" opacity="0.931"/><path d="M291.99526,179.09311c0,0.80614 0,1.61225 0,2.41838c-2.27056,6.34339 -6.80503,9.41676 -13.60341,9.22009c-0.20889,-0.32267 -0.36004,-0.67536 -0.45345,-1.05804c-0.57951,-6.14415 -0.57951,-12.29089 0,-18.44018c0.17352,-0.60217 0.5263,-1.05562 1.05804,-1.36034c1.10853,-0.20153 2.21675,-0.20153 3.32528,0c0.36306,0.27283 0.61518,0.62551 0.75575,1.05804c0.43622,4.52108 0.73851,9.05555 0.90689,13.60341c1.16687,-1.27739 1.87213,-2.78888 2.11609,-4.53447c0.23942,-0.63099 0.5922,-1.18522 1.05804,-1.66264c1.72642,-0.35266 3.33858,-0.10073 4.83677,0.75575z" opacity="0.93"/><path d="M256.0218,191.18503c-1.10853,0 -2.21675,0 -3.32528,0c-1.03809,-0.28631 -1.5922,-0.99166 -1.66264,-2.11609c-0.01995,-2.34913 -0.22158,-4.66676 -0.6046,-6.95285c-0.16959,-0.15777 -0.37122,-0.25853 -0.6046,-0.3023c-2.13241,1.24825 -4.39965,2.00399 -6.80171,2.26724c-1.56469,-1.16518 -2.11881,-2.72706 -1.66264,-4.68562c0.15115,-0.35269 0.40296,-0.6046 0.75575,-0.75575c3.32528,-1.10844 6.65056,-2.21684 9.97583,-3.32528c2.87002,-1.48519 5.69167,-3.04704 8.46434,-4.68562c2.20526,0.88876 3.26331,2.501 3.17413,4.83677c-0.2373,0.5399 -0.58978,0.99335 -1.05804,1.36034c-1.43047,0.44323 -2.841,0.94707 -4.23217,1.51149c-0.36306,0.27282 -0.61518,0.62552 -0.75575,1.05804c-0.1185,0.81255 -0.26965,1.61869 -0.45345,2.41838c0.33223,2.51246 0.48337,5.03163 0.45345,7.55745c-0.20647,0.96094 -0.76058,1.56554 -1.66264,1.81379z" opacity="0.935"/><path d="M220.95522,170.93106c0.99275,0.06749 1.95012,0.26902 2.87183,0.6046c0.33616,6.11909 -0.87304,11.9635 -3.62758,17.53329c-0.45375,0.62987 -1.05835,1.03292 -1.81379,1.20919c-1.11067,-0.32857 -2.16872,-0.78201 -3.17413,-1.36034c-0.49937,-0.44438 -0.80166,-0.99858 -0.90689,-1.66264c1.75901,-4.72301 3.11935,-9.55978 4.08102,-14.51031c0.50454,-1.16704 1.36095,-1.77164 2.56953,-1.81379z" opacity="0.933"/><path d="M232.44255,175.76783c1.0656,-0.04658 1.92231,0.35647 2.56953,1.20919c1.90629,3.49363 2.81319,7.22196 2.72068,11.18503c-1.20949,1.98211 -2.92262,2.5867 -5.13907,1.81379c-0.89843,-2.78601 -1.70436,-5.60745 -2.41838,-8.46434c-0.38996,-1.39359 -0.49093,-2.80433 -0.3023,-4.23217c0.72491,-0.78851 1.58132,-1.29235 2.56953,-1.51149z" opacity="0.92"/></g></g></g></svg>