<svg version="1.1" xmlns="http://www.w3.org/2000/svg" xmlns:xlink="http://www.w3.org/1999/xlink" width="112.15183" height="55.5" viewBox="0,0,112.15183,55.5"><defs><linearGradient x1="240" y1="155" x2="240" y2="205.00003" gradientUnits="userSpaceOnUse" id="color-1"><stop offset="0" stop-color="#facf21"/><stop offset="1" stop-color="#f8c015"/></linearGradient></defs><g transform="translate(-183.92408,-155.00003)"><g data-paper-data="{&quot;isPaintingLayer&quot;:true}" stroke-linejoin="miter" stroke-miterlimit="10" stroke-dasharray="" stroke-dashoffset="0" style="mix-blend-mode: normal"><path d="M271.07591,185.50003h-62.15183" fill="none" fill-rule="nonzero" stroke="#b27c0b" stroke-width="50" stroke-linecap="round"/><path d="M271.07591,180.00003h-62.15183" fill="none" fill-rule="nonzero" stroke="url(#color-1)" stroke-width="50" stroke-linecap="round"/><g fill="#fffac8" fill-rule="evenodd" stroke="#8f6700" stroke-width="3" stroke-linecap="butt"><path d="M216.86975,157.23116c7.2282,0 14.45641,0 21.68461,0c0.72607,0.85492 1.3284,1.81867 1.80705,2.89128c0.4819,9.15575 0.4819,18.31142 0,27.46717c-0.67584,1.88071 -2.00098,2.96494 -3.97551,3.25269c-3.12302,0.36069 -6.25521,0.48118 -9.39666,0.36141c0,3.85502 0,7.71011 0,11.56512c-3.37316,0 -6.74632,0 -10.11948,0c0,-15.17923 0,-30.35845 0,-45.53768zM226.98923,165.905c1.44564,0 2.89128,0 4.33692,0c0,5.54165 0,11.08322 0,16.62487c-1.44564,0 -2.89128,0 -4.33692,0c0,-5.54165 0,-11.08322 0,-16.62487z" opacity="0.92"/><path d="M246.50538,157.23116c5.05974,0 10.11948,0 15.17923,0c0.30843,1.81416 0.79026,3.50074 1.44564,5.05974c0,1.2047 0,2.4094 0,3.6141c-3.1322,0 -6.26447,0 -9.39666,0c0,9.39666 0,18.79333 0,28.18999c3.1322,0 6.26447,0 9.39666,0c0,1.20472 0,2.40938 0,3.6141c-0.65538,1.55898 -1.13721,3.24561 -1.44564,5.05974c-5.05974,0 -10.11948,0 -15.17923,0c-1.2791,-1.16613 -2.12242,-2.61177 -2.52987,-4.33692c-0.4819,-12.52886 -0.4819,-25.05779 0,-37.58666c0.50395,-1.50665 1.34726,-2.71134 2.52987,-3.6141z" opacity="0.928"/></g></g></g></svg>