<svg version="1.1" xmlns="http://www.w3.org/2000/svg" xmlns:xlink="http://www.w3.org/1999/xlink" width="205" height="55.5" viewBox="0,0,205,55.5"><defs><linearGradient x1="240" y1="155" x2="240" y2="205" gradientUnits="userSpaceOnUse" id="color-1"><stop offset="0" stop-color="#dcdbdb"/><stop offset="1" stop-color="#d0d0d0"/></linearGradient></defs><g transform="translate(-137.5,-155)"><g data-paper-data="{&quot;isPaintingLayer&quot;:true}" stroke-linejoin="miter" stroke-miterlimit="10" stroke-dasharray="" stroke-dashoffset="0" style="mix-blend-mode: normal"><path d="M162.5,185.5h155" fill="none" fill-rule="nonzero" stroke="#a29f9a" stroke-width="50" stroke-linecap="round"/><path d="M162.5,180h155" fill="none" fill-rule="nonzero" stroke="url(#color-1)" stroke-width="50" stroke-linecap="round"/><g fill="#f6f5f6" fill-rule="evenodd" stroke="#a3a3a1" stroke-width="2.5" stroke-linecap="butt"><path d="M215.68389,165.79939c0.77811,0 1.55624,0 2.33435,0c0.63961,0.31764 1.09325,0.83638 1.3617,1.55623c0.12956,1.94529 0.25949,3.89058 0.38906,5.83587c0.45403,0.45391 0.90767,0.90779 1.3617,1.3617c4.48584,1.36419 9.02498,2.53136 13.61703,3.50152c1.60642,0.39886 2.38453,1.43636 2.33434,3.11246c-0.54507,3.92804 -2.74986,5.22488 -6.61399,3.89058c-3.28599,-1.27097 -6.65794,-2.04909 -10.11549,-2.33434c-0.68241,1.33151 -1.07147,2.75806 -1.16717,4.27964c1.53756,5.85521 -0.53729,7.80049 -6.22493,5.83587c-0.37353,-0.55223 -0.69779,-1.13581 -0.97265,-1.75076c-0.94292,-6.31814 -1.2023,-12.67274 -0.77811,-19.06383c-0.04848,-2.19139 0.66478,-4.07183 2.13981,-5.64134c0.85896,-0.07427 1.63708,-0.26879 2.33434,-0.58358z" opacity="0.939"/><path d="M176,177.47112c0,-0.38906 0,-0.77811 0,-1.16717c0.30478,-2.53853 0.62899,-5.13225 0.97264,-7.78115c0.22343,-0.77499 0.67734,-1.35858 1.3617,-1.75076c5.63344,-1.36322 7.57874,0.84145 5.83587,6.61398c-0.06485,2.01015 -0.12968,4.02025 -0.19453,6.0304c-0.4364,0.82628 -1.01999,1.53954 -1.75076,2.13981c-3.95443,1.21257 -6.02941,-0.14913 -6.22493,-4.08511z" opacity="0.93"/><path d="M184.94833,194.20061c-0.51873,0 -1.0375,0 -1.55623,0c-2.37274,-0.97565 -3.47507,-2.79126 -3.30699,-5.44681c0.35112,-0.46742 0.80504,-0.79165 1.3617,-0.97265c2.40574,-0.4068 4.74008,-1.05524 7.00304,-1.94529c3.2745,-2.67489 4.83073,-6.17641 4.66869,-10.50456c-0.43131,-2.51394 -0.49613,-5.04281 -0.19453,-7.58663c0.64806,-1.23192 1.68552,-1.75066 3.11246,-1.55624c2.4108,-0.28162 3.83736,0.75587 4.27964,3.11246c3.05555,13.48786 -2.06707,21.78774 -15.36778,24.8997z" opacity="0.933"/><path d="M250.69909,166.18845c4.68037,-0.07993 9.34905,0.11459 14.00608,0.58359c2.61213,0.61841 3.58478,2.23948 2.91794,4.86322c-0.75672,0.5304 -1.59981,0.8546 -2.52888,0.97264c-6.50194,0.35984 -12.98636,0.23013 -19.45288,-0.38905c-1.78149,-1.15219 -2.04061,-2.64359 -0.77812,-4.47416c1.88653,-0.85368 3.83183,-1.37243 5.83587,-1.55624z" opacity="0.9"/><path d="M304.00001,170.85715c0,1.16717 0,2.33434 0,3.50152c-2.35924,1.20009 -4.75856,2.36726 -7.19757,3.50152c-0.74427,1.46235 -1.06875,3.01859 -0.97265,4.66869c0.35832,3.36796 0.42291,6.73981 0.19453,10.1155c-1.85542,1.07582 -3.86568,1.40003 -6.0304,0.97265c-0.83687,-0.10307 -1.48542,-0.49213 -1.94529,-1.16717c-0.30502,-2.90393 -0.49955,-5.82185 -0.58359,-8.7538c-0.10621,-0.71155 -0.43069,-1.29513 -0.97264,-1.75076c-2.68683,0.94852 -5.41023,1.92116 -8.17021,2.91793c-0.85475,-0.13543 -1.56791,-0.52448 -2.13982,-1.16717c-1.15084,-1.73275 -1.40995,-3.54833 -0.77811,-5.44681c4.53447,-1.77111 9.13819,-3.39219 13.81155,-4.86323c3.58945,-2.10099 7.22052,-4.11113 10.89362,-6.03039c1.55701,0.91011 2.85374,2.07729 3.89058,3.50152z" opacity="0.939"/><path d="M249.14287,174.74772c4.80019,-0.06477 9.59844,0.00004 14.39513,0.19453c2.09975,0.0884 4.17498,0.34775 6.22492,0.77811c0.52095,6.50225 -2.07251,11.43028 -7.78115,14.78419c-4.08627,2.64403 -8.49586,3.55182 -13.22797,2.7234c-1.52394,-0.90515 -2.30205,-2.26684 -2.33435,-4.0851c0.16301,-0.45602 0.42213,-0.84507 0.77811,-1.16717c3.26887,-0.71894 6.51088,-1.56188 9.72644,-2.52888c5.41646,-2.52078 5.15696,-3.94734 -0.77811,-4.27963c-2.46429,-0.13587 -4.92858,-0.07101 -7.39209,0.19453c-2.14332,0.05334 -4.21855,-0.27086 -6.22493,-0.97264c-1.55624,-1.55624 -1.55624,-3.11245 0,-4.66869c2.2577,-0.34673 4.46249,-0.67096 6.61399,-0.97264z" opacity="0.923"/></g></g></g></svg>