<svg version="1.1" xmlns="http://www.w3.org/2000/svg" xmlns:xlink="http://www.w3.org/1999/xlink" width="112.15183" height="55.5" viewBox="0,0,112.15183,55.5"><defs><linearGradient x1="240" y1="155" x2="240" y2="205.00005" gradientUnits="userSpaceOnUse" id="color-1"><stop offset="0" stop-color="#facf21"/><stop offset="1" stop-color="#f8c015"/></linearGradient></defs><g transform="translate(-183.92408,-155.00004)"><g data-paper-data="{&quot;isPaintingLayer&quot;:true}" stroke-linejoin="miter" stroke-miterlimit="10" stroke-dasharray="" stroke-dashoffset="0" style="mix-blend-mode: normal"><path d="M208.92408,185.50005h62.15183" fill="none" fill-rule="nonzero" stroke="#b27c0b" stroke-width="50" stroke-linecap="round"/><path d="M208.92408,180.00005h62.15183" fill="none" fill-rule="nonzero" stroke="url(#color-1)" stroke-width="50" stroke-linecap="round"/><g fill="#fffac8" fill-rule="evenodd" stroke="#8f6700" stroke-width="3" stroke-linecap="butt"><path d="M233.65174,168.81498c0.3023,0 0.6046,0 0.9069,0c1.24335,1.04773 2.15024,2.35769 2.72068,3.92987c-0.67624,1.29534 -1.6841,1.64804 -3.02298,1.05804c-1.28325,-1.10411 -1.93833,-2.46446 -1.96493,-4.08103c0.49939,-0.27187 0.95284,-0.57417 1.36034,-0.90689z" opacity="0.832"/><path d="M188.00474,181.20919c0,-0.90689 0,-1.81378 0,-2.72068c0.35754,-0.30366 0.7606,-0.55557 1.20919,-0.75574c1.61226,-0.10075 3.22453,-0.20155 4.83677,-0.3023c1.07784,-0.65825 1.17859,-1.46439 0.30229,-2.41839c-1.1854,-0.06136 -2.3442,-0.21252 -3.47642,-0.45345c-0.87115,-2.51893 -0.01465,-3.98002 2.56953,-4.38332c2.8734,-0.12243 5.74523,-0.27359 8.61549,-0.45345c1.99024,0.06614 3.95518,0.31805 5.89481,0.75574c1.23144,0.54883 1.83604,1.50611 1.81378,2.87184c-0.18982,0.53147 -0.49211,0.98491 -0.90689,1.36034c-0.89728,0.20968 -1.80418,0.36082 -2.72069,0.45345c-1.30523,-0.26285 -2.61521,-0.31321 -3.92987,-0.15115c-0.81464,0.42818 -1.01615,1.03277 -0.6046,1.81379c1.90511,0.83613 3.87005,0.98728 5.89481,0.45345c1.16947,0.06895 2.32827,0.2201 3.47643,0.45345c1.52213,0.91091 1.87482,2.17047 1.05804,3.77872c-0.22684,0.18918 -0.47878,0.34033 -0.75574,0.45345c-3.29789,0.01783 -6.57278,0.26974 -9.82469,0.75574c-0.30342,1.0558 -0.15226,2.01307 0.45345,2.87184c2.41839,0.10075 4.83677,0.20154 7.25515,0.30229c0.15115,0.15115 0.3023,0.3023 0.45345,0.45345c0.20154,1.00765 0.20154,2.01533 0,3.02298c-1.00834,0.80695 -2.16715,1.2604 -3.47643,1.36034c-2.11608,0.20154 -4.23217,0.20154 -6.34826,0c-2.06179,-0.12183 -3.47252,-1.12947 -4.23217,-3.02298c-0.38183,-1.71192 -0.68413,-3.42491 -0.9069,-5.13906c-1.48918,-0.37839 -3.00067,-0.47917 -4.53447,-0.3023c-0.87794,-0.04014 -1.5833,-0.39284 -2.11608,-1.05805z" opacity="0.939"/><path d="M228.81497,169.72186c0.86608,-0.13457 1.62183,0.06697 2.26723,0.6046c0.50393,0.80613 1.00757,1.61225 1.5115,2.41838c0.24939,0.6653 0.09824,1.2195 -0.45345,1.66264c-0.68138,0.34779 -1.38664,0.44855 -2.11608,0.3023c-1.14148,-0.92132 -1.94741,-2.08014 -2.41839,-3.47643c0.19951,-0.69974 0.60248,-1.20356 1.20919,-1.51149z" opacity="0.84"/><path d="M272.04359,169.72186c1.21343,-0.05003 2.42261,0.00035 3.62757,0.15115c0.15115,0.15115 0.3023,0.3023 0.45345,0.45345c0.69892,5.31625 0.29595,10.55606 -1.20919,15.71949c-0.65538,2.36954 -2.16687,3.78027 -4.53447,4.23218c-1.78507,-0.62563 -3.04475,-1.83483 -3.77873,-3.62758c0.6569,-0.8078 1.41264,-1.51315 2.26724,-2.11608c0.57678,-0.82086 0.97975,-1.72775 1.2092,-2.72068c0.33555,-3.21476 0.53719,-6.43925 0.6046,-9.67354c0.07436,-1.05947 0.52781,-1.8656 1.36034,-2.41839z" opacity="0.931"/><path d="M291.99526,179.0931c0,0.80614 0,1.61225 0,2.41839c-2.27056,6.34339 -6.80503,9.41676 -13.60341,9.22009c-0.20889,-0.32268 -0.36004,-0.67536 -0.45345,-1.05804c-0.5795,-6.14415 -0.5795,-12.2909 0,-18.44018c0.17352,-0.60217 0.5263,-1.05561 1.05804,-1.36034c1.10852,-0.20154 2.21676,-0.20154 3.32528,0c0.36306,0.27283 0.61517,0.62551 0.75574,1.05804c0.43622,4.52108 0.73851,9.05555 0.90689,13.60341c1.16687,-1.27739 1.87213,-2.78888 2.11609,-4.53447c0.23942,-0.63099 0.5922,-1.18522 1.05804,-1.66264c1.72642,-0.35266 3.33858,-0.10073 4.83677,0.75574z" opacity="0.93"/><path d="M256.02179,191.18503c-1.10852,0 -2.21676,0 -3.32528,0c-1.03809,-0.2863 -1.59221,-0.99166 -1.66264,-2.11608c-0.01995,-2.34913 -0.22159,-4.66675 -0.6046,-6.95285c-0.16959,-0.15777 -0.37122,-0.25852 -0.6046,-0.3023c-2.13241,1.24825 -4.39964,2.004 -6.8017,2.26723c-1.5647,-1.16518 -2.11881,-2.72706 -1.66264,-4.68562c0.15115,-0.35269 0.40296,-0.60459 0.75574,-0.75574c3.32528,-1.10844 6.65056,-2.21685 9.97583,-3.32528c2.87001,-1.48519 5.69167,-3.04704 8.46435,-4.68562c2.20526,0.88876 3.26331,2.50101 3.17413,4.83677c-0.2373,0.53991 -0.58979,0.99335 -1.05804,1.36034c-1.43048,0.44323 -2.841,0.94707 -4.23217,1.51149c-0.36306,0.27283 -0.61518,0.62551 -0.75575,1.05804c-0.1185,0.81255 -0.26966,1.61868 -0.45345,2.41839c0.33222,2.51246 0.48338,5.03163 0.45345,7.55745c-0.20647,0.96095 -0.76058,1.56554 -1.66264,1.81378z" opacity="0.935"/><path d="M220.95523,170.93106c0.99275,0.06749 1.95012,0.26902 2.87183,0.60459c0.33615,6.11909 -0.87304,11.9635 -3.62758,17.53329c-0.45375,0.62987 -1.05834,1.03293 -1.81379,1.20919c-1.11067,-0.32857 -2.16872,-0.78202 -3.17413,-1.36034c-0.49937,-0.44438 -0.80166,-0.99858 -0.90689,-1.66264c1.75901,-4.72302 3.11936,-9.55978 4.08103,-14.5103c0.50454,-1.16704 1.36095,-1.77164 2.56954,-1.81378z" opacity="0.933"/><path d="M232.44255,175.76783c1.0656,-0.04658 1.92231,0.35647 2.56953,1.20919c1.90629,3.49363 2.81319,7.22196 2.72069,11.18502c-1.2095,1.98211 -2.92261,2.58671 -5.13906,1.81379c-0.89843,-2.78601 -1.70435,-5.60745 -2.41839,-8.46435c-0.38996,-1.3936 -0.49094,-2.80433 -0.3023,-4.23217c0.72491,-0.78851 1.58132,-1.29236 2.56954,-1.51149z" opacity="0.92"/></g></g></g></svg>