<svg version="1.1" xmlns="http://www.w3.org/2000/svg" xmlns:xlink="http://www.w3.org/1999/xlink" width="205" height="55.5" viewBox="0,0,205,55.5"><defs><linearGradient x1="240" y1="155" x2="240" y2="205" gradientUnits="userSpaceOnUse" id="color-1"><stop offset="0" stop-color="#facf21"/><stop offset="1" stop-color="#f8c015"/></linearGradient></defs><g transform="translate(-137.5,-155)"><g data-paper-data="{&quot;isPaintingLayer&quot;:true}" fill-rule="nonzero" stroke-linecap="round" stroke-linejoin="miter" stroke-miterlimit="10" stroke-dasharray="" stroke-dashoffset="0" style="mix-blend-mode: normal"><path d="M162.5,185.5h155" fill="none" stroke="#b27c0b" stroke-width="50"/><path d="M162.5,180h155" fill="none" stroke="url(#color-1)" stroke-width="50"/><g stroke="#8f6700" stroke-width="2.5"><path d="M173.61413,170.24433h24.18659l-8.42453,15.83353l2.98935,4.93177l-3.80463,2.3361l-10.87038,-10.64221l2.71759,-4.15307l3.80463,3.1148l4.34815,-6.48915l-15.21853,-0.25958z" fill="#fffac8"/><path d="M227.77083,169.91531l-7.92313,6.58055v16.12235h-6.20071v-13.1611l-6.88968,4.93541l-4.13381,-4.60639l5.85623,-4.60639l6.54519,-4.60639l6.54519,-4.93541z" fill="#fffac8"/><path d="M257.05196,169.91531l19.98007,-0.32903l1.03345,22.04485l-21.01352,0.32903l-0.34448,-6.25152l14.46832,-0.32903l0.68897,-7.89666h-14.81281z" fill="#fffac8"/><path d="M237.45681,191.93931h-8.05204v-3.57866l10.61405,-11.00705h-10.0912v-7.21154h18.40467v8.02486l-1.8823,3.03642l4.91488,5.20532v4.98841h-5.54231l-3.92144,-4.06664z" fill="#fffac8"/><path d="M285.64412,171.39592h20.66904l0.34448,5.59347l-3.78932,6.58055l-5.85623,-0.98708l3.44484,-5.26444h-14.12384z" fill="#fffac8"/><path d="M295.35856,183.83317c0,0 -0.81646,3.85187 -1.97496,5.538c-1.24644,1.81413 -5.2592,4.99089 -5.2592,4.99089l-4.82277,-1.97417c0,0 4.04362,-3.53479 5.46795,-5.51875c1.32424,-1.84454 2.79967,-5.99722 2.79967,-5.99722z" fill="#fffac8"/></g></g></g></svg>