<svg version="1.1" xmlns="http://www.w3.org/2000/svg" xmlns:xlink="http://www.w3.org/1999/xlink" width="205" height="55.5" viewBox="0,0,205,55.5"><defs><linearGradient x1="240" y1="152.25" x2="240" y2="202.25" gradientUnits="userSpaceOnUse" id="color-1"><stop offset="0" stop-color="#dcdbdb"/><stop offset="1" stop-color="#d0d0d0"/></linearGradient></defs><g transform="translate(-137.5,-152.25)"><g data-paper-data="{&quot;isPaintingLayer&quot;:true}" stroke-linejoin="miter" stroke-miterlimit="10" stroke-dasharray="" stroke-dashoffset="0" style="mix-blend-mode: normal"><path d="M162.5,182.75h155" fill="none" fill-rule="nonzero" stroke="#a29f9a" stroke-width="50" stroke-linecap="round"/><path d="M162.5,177.25h155" fill="none" fill-rule="nonzero" stroke="url(#color-1)" stroke-width="50" stroke-linecap="round"/><g fill="#f6f5f6" fill-rule="evenodd" stroke="#a3a3a1" stroke-width="2.5" stroke-linecap="butt"><path d="M197.97941,162.0935c0.95501,0 1.91003,0 2.86504,0c0.65777,0.35069 1.37403,0.66903 2.14878,0.95501c0.39958,1.36803 0.79753,2.72097 1.19377,4.05881c3.71276,0.13661 7.37366,0.61412 10.98265,1.43252c0.43749,0.17868 0.83545,0.41744 1.19377,0.71626c0.31835,1.59167 0.31835,3.18339 0,4.77507c-0.35832,0.29882 -0.75628,0.53758 -1.19377,0.71626c-1.23913,0.10773 -2.4329,0.34648 -3.5813,0.71626c-1.62758,-0.53571 -3.29886,-0.61532 -5.01382,-0.23875c-1.51016,0.70661 -2.38562,1.90038 -2.62629,3.5813c-0.15915,5.25257 -0.31835,10.50515 -0.47751,15.75772c-0.99622,1.88391 -2.50834,2.99812 -4.53631,3.34255c-1.75087,0 -3.5017,0 -5.25257,0c-4.59552,-0.63943 -6.02804,-3.18612 -4.29756,-7.64011c1.75087,0 3.5017,0 5.25257,0c0.19922,-4.49553 -0.03954,-8.95225 -0.71626,-13.37019c-0.9012,-1.13933 -2.09497,-1.69644 -3.5813,-1.67127c-2.86504,-0.15915 -5.73008,-0.31835 -8.59512,-0.47751c-0.96619,-1.51995 -1.20495,-3.19123 -0.71626,-5.01382c0.57968,-0.73956 1.29594,-1.29667 2.14878,-1.67127c3.69786,-0.04909 7.35876,-0.36744 10.98265,-0.95501c0.36978,-1.1484 0.60853,-2.34217 0.71626,-3.5813c0.97669,-0.68115 2.01131,-1.15866 3.10379,-1.43252z" opacity="0.943"/><path d="M300.16584,191.22141c0,0.47751 0,0.95501 0,1.43252c-1.9382,2.85009 -4.64375,4.20301 -8.11761,4.05881c-0.36291,-0.68813 -0.68092,-1.40439 -0.95501,-2.14878c-0.47751,-0.15915 -0.95501,-0.31835 -1.43252,-0.47751c-6.42867,0.8418 -12.87501,1.4785 -19.33902,1.91003c-5.28839,0.71903 -7.83541,-1.5093 -7.64011,-6.68509c1.2864,-0.72753 2.55944,-1.52334 3.82005,-2.38753c2.51837,-7.23685 5.22392,-14.39945 8.11761,-21.4878c2.12347,-1.62768 4.43174,-1.86644 6.92385,-0.71626c0.70671,1.07277 1.02521,2.26653 0.95501,3.5813c-0.81701,5.07805 -2.16979,10.01227 -4.05881,14.80271c-0.3185,1.27337 -0.3185,2.54669 0,3.82005c2.93905,0.41333 5.88336,0.25418 8.83387,-0.47751c-0.14277,-1.72165 -0.69955,-3.31332 -1.67127,-4.77507c-0.61742,-1.94923 -0.06017,-3.4613 1.67127,-4.53631c1.87278,-1.11116 3.78281,-1.27036 5.73008,-0.47751c3.10761,4.54338 5.49515,9.39805 7.1626,14.56395z" opacity="0.937"/><path d="M226.62981,176.4187c8.91505,-0.07955 17.82819,0.00005 26.74038,0.23875c2.81108,0.02961 4.5621,1.38257 5.25257,4.05881c-0.12415,0.8056 -0.44265,1.52186 -0.95501,2.14878c-2.06044,1.21721 -4.28849,1.85387 -6.68509,1.91003c-8.2919,0.41925 -16.56853,0.2601 -24.83035,-0.47751c-2.44636,-0.21913 -4.03808,-1.49249 -4.77507,-3.82005c0.23412,-0.94642 0.71163,-1.74228 1.43252,-2.38753c1.26917,-0.70575 2.54248,-1.26281 3.82005,-1.67127z" opacity="0.922"/><path d="M209.43957,176.89621c1.50491,-0.25852 2.69868,0.21898 3.5813,1.43252c1.8045,3.18583 3.23702,6.52838 4.29756,10.02764c0.32666,2.38796 -0.7079,3.90008 -3.10379,4.53631c-1.66774,0.47927 -3.17981,0.24052 -4.53631,-0.71626c-1.79371,-3.94807 -3.30583,-8.00688 -4.53631,-12.17642c0.28684,-0.7664 0.76434,-1.40311 1.43252,-1.91003c1.06131,-0.27036 2.01632,-0.66827 2.86504,-1.19377z" opacity="0.902"/><path d="M179.83416,190.26639c0,-0.31835 0,-0.63666 0,-0.95501c1.14954,-3.97295 2.9004,-7.7134 5.25257,-11.22141c2.12911,-0.94704 4.19829,-0.78784 6.20759,0.47751c0.66569,0.4565 0.984,1.0932 0.95501,1.91003c-1.06011,4.37969 -2.81099,8.4385 -5.25257,12.17642c-2.89902,0.69754 -5.28656,-0.09827 -7.1626,-2.38753z" opacity="0.906"/></g></g></g></svg>